<svg xmlns="http://www.w3.org/2000/svg" class="Intro__icon" viewBox="-20 -20 120 120"><path fill="currentColor" stroke="currentColor" stroke-width="1" d="M86.7,10.6H75.1v-4a2.2,2.2,0,1,0-4.4,0v4H29.3v-4a2.2,2.2,0,1,0-4.4,0v4H13.3A10.76,10.76,0,0,0,2.5,21.4V84.8A10.76,10.76,0,0,0,13.3,95.6H64.7a13.53,13.53,0,0,0,9.7-4l19-19a13.53,13.53,0,0,0,4-9.7V21.5A10.63,10.63,0,0,0,86.7,10.6ZM13.3,14.9H24.9v4a2.2,2.2,0,0,0,4.4,0v-4H70.8v4a2.2,2.2,0,1,0,4.4,0v-4H86.8a6.49,6.49,0,0,1,6.5,6.5V32.7H6.8V21.4A6.49,6.49,0,0,1,13.3,14.9Zm0,76.3a6.49,6.49,0,0,1-6.5-6.5V37H93.2V62.8c0,.4-.1.7-.1,1.1H72.2a6.44,6.44,0,0,0-6.4,6.4V91.2c-.4,0-.7.1-1.1.1Zm58.1-2.7a15,15,0,0,1-1.3,1.1V70.3a2.05,2.05,0,0,1,2.1-2.1H91.5a6.89,6.89,0,0,1-1.1,1.3Z"></path></svg>