<svg class="Intro__icon" xmlns="http://www.w3.org/2000/svg" viewBox="0 0 25 24"><g fill="currentColor"><path d="M14.82,1.16A2.11,2.11,0,0,0,13.1,4.5,9,9,0,0,0,9,6.45H5.29a.53.53,0,0,0,0,1.06H8A8.62,8.62,0,0,0,6.62,9.62H3.18a.53.53,0,1,0,0,1.06h3a8.81,8.81,0,0,0-.38,2.12H2.12a.53.53,0,1,0,0,1.06H5.84A8.64,8.64,0,0,0,6.22,16h-3a.53.53,0,1,0,0,1.06H6.62A9.16,9.16,0,0,0,8,19.15H5.29a.53.53,0,0,0,0,1.06H9A9,9,0,1,0,16.54,4.5a2.09,2.09,0,0,0,.39-1.23A2.12,2.12,0,0,0,14.82,1.16Zm0,1.05a1.06,1.06,0,0,1,0,2.12h0a1.06,1.06,0,0,1,0-2.12Zm0,3.18a7.94,7.94,0,1,1-7.94,7.94A7.93,7.93,0,0,1,14.82,5.39Z"></path><path d="M15.35,7a.53.53,0,0,1-.53.53h0A.53.53,0,0,1,14.29,7h0a.52.52,0,0,1,.53-.53h0a.53.53,0,0,1,.53.53Z"></path><path d="M21.17,13.86a.53.53,0,0,1-.53-.53h0a.52.52,0,0,1,.53-.53h0a.53.53,0,0,1,.53.53h0a.53.53,0,0,1-.53.53Z"></path><path d="M14.29,19.68a.53.53,0,0,1,.53-.53h0a.53.53,0,0,1,.53.53h0a.53.53,0,0,1-.53.53h0a.53.53,0,0,1-.53-.53Z"></path><path d="M8.47,12.8a.53.53,0,0,1,.53.53H9a.53.53,0,0,1-.53.53h0a.53.53,0,0,1-.53-.53h0a.53.53,0,0,1,.53-.53Z"></path><path d="M10.7,8.46a.53.53,0,0,1-.75.75h0c-.09-.16.1-.47,0-.75A.54.54,0,0,1,10.7,8.46Z"></path><path d="M18.93,18.19a.53.53,0,0,1,.75-.75h0c.13.19,0,.5,0,.75A.53.53,0,0,1,18.93,18.19Z"></path><path d="M10,17.44a.54.54,0,0,1,.75,0,.53.53,0,0,1-.75.75A.54.54,0,0,1,10,17.44Z"></path><path d="M19.68,9.21a.53.53,0,0,1-.75,0h0c-.29,0-.53-.08-.53-.37s.24-.53.53-.38a.54.54,0,0,1,.75,0A.53.53,0,0,1,19.68,9.21Z"></path><path d="M14.81,8.56a.52.52,0,0,0-.52.53h0v4.24a.51.51,0,0,0,.15.37l2.65,2.65a.53.53,0,0,0,.77-.73l0,0-2.49-2.49v-4a.53.53,0,0,0-.53-.53Z"></path></g></svg>